{
    "asset": {
        "version": "2.0",
        "generator": "Open Asset Import Library (assimp v3.1.202510665)"
    },
    "accessors": [
        {
            "bufferView": 0,
            "byteOffset": 0,
            "componentType": 5126,
            "count": 85,
            "type": "VEC3",
            "max": [
                0.0,
                0.5,
                0.5
            ],
            "min": [
                -0.5,
                -0.5,
                -0.5
            ]
        },
        {
            "bufferView": 1,
            "byteOffset": 0,
            "componentType": 5126,
            "count": 85,
            "type": "VEC3",
            "max": [
                0.0,
                1.0,
                1.0
            ],
            "min": [
                -1.0,
                -1.0,
                -1.0
            ]
        },
        {
            "bufferView": 2,
            "byteOffset": 0,
            "componentType": 5126,
            "count": 85,
            "type": "VEC2",
            "max": [
                0.5,
                1.0
            ],
            "min": [
                0.125,
                0.0
            ]
        },
        {
            "bufferView": 3,
            "byteOffset": 0,
            "componentType": 5123,
            "count": 288,
            "type": "SCALAR",
            "max": [
                84.0
            ],
            "min": [
                0.0
            ]
        },
        {
            "bufferView": 4,
            "byteOffset": 0,
            "componentType": 5126,
            "count": 85,
            "type": "VEC3",
            "max": [
                0.5,
                0.5,
                0.5
            ],
            "min": [
                0.0,
                -0.5,
                -0.5
            ]
        },
        {
            "bufferView": 5,
            "byteOffset": 0,
            "componentType": 5126,
            "count": 85,
            "type": "VEC3",
            "max": [
                1.0,
                1.0,
                1.0
            ],
            "min": [
                0.0,
                -1.0,
                -1.0
            ]
        },
        {
            "bufferView": 6,
            "byteOffset": 0,
            "componentType": 5126,
            "count": 85,
            "type": "VEC2",
            "max": [
                0.875,
                1.0
            ],
            "min": [
                0.5,
                0.0
            ]
        },
        {
            "bufferView": 7,
            "byteOffset": 0,
            "componentType": 5123,
            "count": 288,
            "type": "SCALAR",
            "max": [
                84.0
            ],
            "min": [
                0.0
            ]
        }
    ],
    "buffers": [
        {
            "byteLength": 6592,
            "uri": "box.bin"
        }
    ],
    "bufferViews": [
        {
            "buffer": 0,
            "byteOffset": 0,
            "byteLength": 1020,
            "target": 34962
        },
        {
            "buffer": 0,
            "byteOffset": 1020,
            "byteLength": 1020,
            "target": 34962
        },
        {
            "buffer": 0,
            "byteOffset": 2040,
            "byteLength": 680,
            "target": 34962
        },
        {
            "buffer": 0,
            "byteOffset": 2720,
            "byteLength": 576,
            "target": 34963
        },
        {
            "buffer": 0,
            "byteOffset": 3296,
            "byteLength": 1020,
            "target": 34962
        },
        {
            "buffer": 0,
            "byteOffset": 4316,
            "byteLength": 1020,
            "target": 34962
        },
        {
            "buffer": 0,
            "byteOffset": 5336,
            "byteLength": 680,
            "target": 34962
        },
        {
            "buffer": 0,
            "byteOffset": 6016,
            "byteLength": 576,
            "target": 34963
        }
    ],
    "materials": [
        {
            "name": "LeftSide",
            "pbrMetallicRoughness": {
                "baseColorFactor": [
                    0.5,
                    0.5,
                    0.5,
                    1.0
                ],
                "metallicFactor": 0.0
            }
        },
        {
            "name": "rightSide",
            "pbrMetallicRoughness": {
                "baseColorFactor": [
                    0.5,
                    0.5,
                    0.5,
                    1.0
                ],
                "metallicFactor": 0.0
            }
        }
    ],
    "meshes": [
        {
            "name": "pCube1",
            "primitives": [
                {
                    "mode": 4,
                    "material": 0,
                    "indices": 3,
                    "attributes": {
                        "POSITION": 0,
                        "NORMAL": 1,
                        "TEXCOORD_0": 2
                    }
                },
                {
                    "mode": 4,
                    "material": 1,
                    "indices": 7,
                    "attributes": {
                        "POSITION": 4,
                        "NORMAL": 5,
                        "TEXCOORD_0": 6
                    }
                }
            ]
        }
    ],
    "nodes": [
        {
            "name": "RootNode",
            "children": [
                1
            ]
        },
        {
            "name": "pCube1",
            "mesh": 0
        }
    ],
    "scenes": [
        {
            "nodes": [
                0
            ]
        }
    ],
    "scene": 0
}